<svg width="152" height="152" viewBox="0 0 152 152" fill="none" xmlns="http://www.w3.org/2000/svg">
<path d="M122.352 145.518H31.6825C30.9221 145.516 30.1937 145.212 29.656 144.675C29.1183 144.137 28.8151 143.409 28.8125 142.648V73.2982C28.8558 72.5651 29.1775 71.8761 29.7119 71.3723C30.2463 70.8685 30.953 70.5879 31.6875 70.5879C32.422 70.5879 33.1287 70.8685 33.6631 71.3723C34.1975 71.8761 34.5192 72.5651 34.5625 73.2982V139.778H119.462V73.2982C119.506 72.5651 119.827 71.8761 120.362 71.3723C120.896 70.8685 121.603 70.5879 122.337 70.5879C123.072 70.5879 123.779 70.8685 124.313 71.3723C124.847 71.8761 125.169 72.5651 125.212 73.2982V142.648C125.21 143.407 124.908 144.134 124.372 144.671C123.837 145.209 123.111 145.513 122.352 145.518V145.518Z" fill="#1C3775"/>
<path d="M93.7424 115.427H60.2723C59.5112 115.427 58.7812 115.125 58.243 114.587C57.7048 114.049 57.4023 113.319 57.4023 112.557V79.0575C57.4023 78.2963 57.7048 77.5663 58.243 77.0281C58.7812 76.4899 59.5112 76.1875 60.2723 76.1875H93.7424C94.5045 76.1875 95.2355 76.4896 95.7753 77.0275C96.3151 77.5654 96.6197 78.2954 96.6224 79.0575V112.537C96.6237 112.917 96.5502 113.292 96.406 113.643C96.2619 113.993 96.0499 114.312 95.7823 114.58C95.5148 114.849 95.1969 115.062 94.8468 115.207C94.4967 115.353 94.1214 115.427 93.7424 115.427ZM63.1423 109.688H90.8724V81.9275H63.1423V109.688Z" fill="#1C3775"/>
<path d="M31.6825 52.3369C30.9221 52.3342 30.1937 52.031 29.656 51.4934C29.1183 50.9557 28.8151 50.2272 28.8125 49.4669V9.91687C28.8151 9.15651 29.1183 8.42804 29.656 7.89038C30.1937 7.35272 30.9221 7.04951 31.6825 7.04688H50.5925C51.3546 7.04687 52.0856 7.34893 52.6254 7.88687C53.1652 8.42482 53.4698 9.15478 53.4725 9.91687V32.4269C53.4956 32.8187 53.4384 33.2111 53.3043 33.58C53.1703 33.9489 52.9623 34.2865 52.6931 34.5721C52.4238 34.8577 52.0991 35.0852 51.7387 35.2408C51.3783 35.3963 50.99 35.4765 50.5975 35.4765C50.205 35.4765 49.8166 35.3963 49.4562 35.2408C49.0959 35.0852 48.7711 34.8577 48.5019 34.5721C48.2327 34.2865 48.0247 33.9489 47.8906 33.58C47.7566 33.2111 47.6994 32.8187 47.7225 32.4269V12.7869H34.5625V49.4269C34.5665 49.8076 34.4949 50.1854 34.3519 50.5382C34.209 50.8911 33.9974 51.2121 33.7296 51.4828C33.4618 51.7534 33.143 51.9682 32.7916 52.1148C32.4402 52.2614 32.0632 52.3369 31.6825 52.3369V52.3369Z" fill="#1C3775"/>
<path d="M18.0635 86.0766H17.8935C17.5106 86.0501 17.1368 85.948 16.7936 85.7764C16.4504 85.6048 16.1444 85.367 15.8935 85.0766L5.72347 73.6467C5.42455 73.3072 5.20922 72.9025 5.09462 72.4649C4.98002 72.0274 4.96936 71.5691 5.0635 71.1267C5.01331 70.88 4.99317 70.6282 5.0035 70.3767C5.02898 69.9936 5.13051 69.6194 5.3022 69.276C5.4739 68.9326 5.71232 68.6269 6.0035 68.3767L73.9035 7.73665C74.2408 7.43392 74.645 7.21537 75.083 7.09892C75.521 6.98246 75.9804 6.97143 76.4235 7.06666C76.8665 6.96895 77.3265 6.97878 77.7649 7.09535C78.2033 7.21192 78.6075 7.43181 78.9435 7.73665L146.833 68.4266C147.372 69.1912 147.679 70.0939 147.72 71.028C147.761 71.962 147.533 72.8881 147.063 73.6966L136.893 85.1267C136.39 85.6804 135.69 86.0155 134.942 86.0603C134.195 86.1052 133.46 85.8562 132.893 85.3667L76.4534 35.0867L20.0235 85.3667C19.4797 85.8364 18.7819 86.0892 18.0635 86.0766V86.0766ZM76.4035 28.3566C77.1067 28.3554 77.7861 28.6115 78.3135 29.0766L134.513 79.1467L141.513 71.3367L76.5734 13.3367C76.4971 13.3466 76.4198 13.3466 76.3435 13.3367L11.4235 71.3367V71.3967L18.3435 79.1767L74.5435 29.1066C75.0545 28.6434 75.714 28.3775 76.4035 28.3566V28.3566Z" fill="#1C3775"/>
</svg>
